<svg width="30" height="30" viewBox="0 0 30 30" fill="none" xmlns="http://www.w3.org/2000/svg">
<path d="M15 13.125C13.9688 13.125 13.0723 13.9688 13.0723 15C13.0723 16.0312 13.9688 16.875 15 16.875C16.033 16.875 16.875 16.0324 16.875 15C16.875 13.9676 16.0313 13.125 15 13.125ZM27.5508 7.5C26.9133 6.35742 25.1772 4.52637 20.7364 5.04609C19.4766 2.04375 17.5547 0 15 0C12.4453 0 10.5235 2.04375 9.2637 5.04609C4.82464 4.53398 3.0885 6.35742 2.451 7.5C1.49124 9.22148 1.57737 11.7844 3.92932 15C1.57796 18.2156 1.49124 20.7791 2.451 22.5C4.15784 25.5691 8.40413 25.0564 9.26546 24.9539C10.5235 27.9551 12.4453 30 15 30C17.5547 30 19.476 27.9562 20.7364 24.9533C21.5918 25.0547 25.8399 25.5703 27.5508 22.5C28.5106 20.7785 28.4244 18.215 26.0725 15C28.4239 11.7832 28.5059 9.22266 27.5508 7.5ZM5.58636 20.625C5.35192 20.2002 5.57903 19.1748 6.46526 17.7979C6.86815 18.1787 7.29319 18.552 7.74729 18.9182C7.84251 19.7238 7.98173 20.5078 8.14286 21.2695C6.69729 21.3223 5.80608 21.0117 5.58636 20.625ZM7.74612 11.0801C7.29495 11.4492 6.86722 11.8242 6.46292 12.1992C5.57932 10.8281 5.35198 9.79688 5.58636 9.375C5.78417 9.01611 6.54612 8.70117 7.80589 8.70117C7.90843 8.70117 8.033 8.72314 8.14286 8.72314C7.97464 9.50391 7.83987 10.2891 7.74612 11.0801ZM15 3.75C15.5568 3.75 16.3037 4.54102 16.9852 5.93262C16.3242 6.15234 15.668 6.4043 15 6.68555C14.3321 6.4043 13.6758 6.15234 13.0137 5.92969C13.6934 4.54102 14.4434 3.75 15 3.75ZM15 26.25C14.4433 26.25 13.6963 25.459 13.0149 24.0674C13.6758 23.8477 14.3321 23.5957 15 23.3145C15.6668 23.6001 16.326 23.8497 16.9852 24.0697C16.3067 25.459 15.5567 26.25 15 26.25ZM15 19.6875C12.4143 19.6875 10.3114 17.5852 10.3114 15C10.3114 12.4148 12.416 10.3125 15 10.3125C17.584 10.3125 19.6887 12.4148 19.6887 15C19.6887 17.5852 17.584 19.6875 15 19.6875ZM24.416 20.625C24.2036 21.0132 23.3028 21.3211 21.8596 21.2695C22.0208 20.5605 22.16 19.7238 22.2552 18.9182C22.7094 18.552 23.1341 18.1781 23.5372 17.7979C24.4219 19.1719 24.6504 20.2031 24.416 20.625ZM23.5371 12.1992C23.1342 11.8184 22.7092 11.4451 22.2551 11.0789C22.1599 10.2879 22.028 9.50391 21.8595 8.72051C21.9694 8.72051 22.094 8.69853 22.1965 8.69853C23.4563 8.69853 24.2186 9.01348 24.416 9.37236C24.6504 9.79688 24.4219 10.8281 23.5371 12.1992Z" fill="black"/>
</svg>
